# xmcd
#
# Track frame offsets:
#	150
#	20030
#	33051
#	52598
#	71303
#	89747
#	106121
#	123078
#	140357
#	156703
#
# Disc length: 2289 seconds
#
# Revision: 1
# Processed by: cddbd v1.5.2PL0 Copyright (c) Steve Scherf et al.
# Submitted via: audiograbber 1.83.01
#
DISCID=7a08ef0a
DTITLE=Rodney Crowell - Kin
DYEAR=2012
DGENRE=Country
TTITLE0=Anything But Tame
TTITLE1=If The Law Don't Want You (w. Norah Jones)
TTITLE2=Just Pleasing You (w. Vince Gill)
TTITLE3=God I'm Missing You (w. Lucinda Williams)
TTITLE4=I'm A Mess
TTITLE5=Momma's On A Roll (w. Lee Ann Womack)
TTITLE6=Sister Oh Sister (w. Roseanne Cash)
TTITLE7=My Father's Advice (w. Kris Kristofferson)
TTITLE8=Long Time Girl Gone By (w. Emmylou Harris)
TTITLE9=Hungry For Home
EXTD=
EXTT0=
EXTT1=
EXTT2=
EXTT3=
EXTT4=
EXTT5=
EXTT6=
EXTT7=
EXTT8=
EXTT9=
PLAYORDER=
